<svg xmlns="http://www.w3.org/2000/svg" viewBox="0 0 133.92 167.24"><defs><style>.cls-1{fill:#5e2d0b;}.cls-2{fill:#f2dcca;}.cls-3{fill:#eda7cc;}.cls-4{fill:#e60590;}.cls-5{fill:#fff;}.cls-6{fill:#9aacb3;}.cls-7{fill:#6d350f;}.cls-8{fill:#d6beab;}.cls-9{fill:none;stroke:#137eba;stroke-miterlimit:10;stroke-width:5px;}</style></defs><title>Asset 13</title><g id="Layer_2" data-name="Layer 2"><g id="Layer_1-2" data-name="Layer 1"><path class="cls-1" d="M90.57,155.92c.34,4.57,22.25,8.64,26.25,6.42,9.27-5.14-1.95-26.89-1.48-37.48a869.92,869.92,0,0,0-.78-91.92c-.13-2.09-.3-4.28-1.43-6-1.24-1.94-3.44-3-5.56-3.92a79.07,79.07,0,0,0-74.43,7.82c-5.43,3.78-10.87,8.44-17.48,8.73a267,267,0,0,0,1.5,103.76c.84,3.92,1.83,7.95,4.27,11.13,7,9.13,31.66,14,30.94,4.36C51.2,143.16,89.41,140.31,90.57,155.92Z"/><path class="cls-2" d="M33.69,21A131.38,131.38,0,0,0,23.35,84.73c.68,7.6,2.11,15.37,6.29,21.75,2.59,4,6.12,7.21,9.69,10.32,9.18,8,21,15.77,32.64,12.34,5-1.46,5.84-4.53,10.85-5.8,9.4-2.38,20.51-11.46,25-19,2.05-3.44,3.3-4.51,4.89-8.19,1.45-3.33,1.38-7.11,1.21-10.74a247.53,247.53,0,0,0-10.06-59,4.88,4.88,0,0,0-1.5-2.69,4.93,4.93,0,0,0-3.4-.51c-10.23.93-20.33-.42-30.61-.83C64.93,22.21,34.47,19.17,33.69,21Z"/><path class="cls-3" d="M96.8,70.86c-5-1-11.39.07-13.36,4.82-2.06,4.94,2.19,10.46,7.09,12.63a13.23,13.23,0,0,0,5.72,1.28c5.82-.16,10.45-5.65,11.32-11.41a5,5,0,0,0-.56-3.69c-.92-1.24-2.65-1.51-4.19-1.63a82.11,82.11,0,0,0-15.36.21"/><path class="cls-3" d="M38.82,69.88l-9.52.26a7.19,7.19,0,0,0-4.37,1.07c-2.65,2.09-1.19,6.3.48,9.24,1.57,2.76,3.21,5.61,5.77,7.5s6.29,2.58,8.89.76c3.22-2.26,3.28-6.92,3-10.84a9.37,9.37,0,0,0-1-4.38c-.81-1.28-2.54-2.12-3.89-1.42"/><path class="cls-4" d="M52.92,100.42c.65-.68.89-1.74,1.71-2.2,1.67-.93,3.77.83,5.14,2.18,1-2.06,4-2.06,4-2.06,3.9,1.94,15.09,5.41,13,3-2.21,2.78-4,6-6,8s-4.89,4.91-12.47,3.48c-2.87-.54-6.8-2.72-7.77-5.73-1.25-3.82-1.58-5.69-1.76-5.75C47.61,100.91,51.05,102.38,52.92,100.42Z"/><path class="cls-5" d="M90.86,55.47C83.49,52.23,72.22,62.06,70.62,70c9.86,5,16.1,5.22,21,3.15.94-.39,2.1,0,3-.52,1.69-1,2.36-.72,3.73-2.13,2.18-2.23,6.77-5.14,6.38-8.23-5.6-.73-8.27-6-13.88-6.76C87.29,55,80.15,59.33,77.76,62"/><path class="cls-5" d="M38.2,57.05C46,55.18,55.36,66.88,55.52,74.93c-10.6,3.16-16.78,2.25-21.26-.67-.85-.56-2.06-.38-2.83-1-1.49-1.28-2.2-1.14-3.29-2.77-1.74-2.59-5.74-6.27-4.8-9.24,5.64.28,9.22-4.45,14.86-4.16,3.61.18,9.85,5.72,11.72,8.8"/><path class="cls-6" d="M38.18,60.85a2.32,2.32,0,0,0-2.43,1.39,6.16,6.16,0,0,0-.4,3c.06,1.27.17,2.53.35,3.79a3.6,3.6,0,0,0,.58,1.73c.66.84,1.87.94,2.94,1l3.8.12a7.05,7.05,0,0,0,4.22-.74c2.17-1.46,2-5,.22-6.91s-4.46-2.67-7-3.12a7.22,7.22,0,0,0-4,.13,2.73,2.73,0,0,0-1.69,3.26"/><path class="cls-7" d="M113.63,29C103.89,31,89.22,42.07,88.49,41.67c-2.91,2.64-51.15,10.93-51.11,7.67C34,52.75,26.85,52,24.55,52.07c-5.74.13-4.84-1.6-7.46,3.51s-3.22,11-3.44,16.73C12.54,101.37,20,130,27.43,158.12c-3.29,2.61-8.42,1.5-11.47-1.39s-4.48-7.07-5.61-11.11c-6-21.49,8.93-49.9-6.07-66.41C-13.53,59.62,28.61-4.28,50.82,3.34,50.82-1.36,80.4,0,89,1a47.49,47.49,0,0,1,9.45,2.34c11,3.77,23.25,8.77,27.24,19.66,1.42,3.87,1.58,8.07,2,12.18a90.89,90.89,0,0,0,5.47,23c1.9,5,0,35.7-4.16,45.57a93.72,93.72,0,0,0-3.22,63.46c-6.63-2.49-12.53-7.42-15.2-14a35.48,35.48,0,0,1-2.13-11.8c-1-21.66,1.71-46.37,2.29-68.05C111.11,60,103,51.5,105.82,38.34c-1.58-.06,6.54-2,5-2.06-.8-2.14-8-4.43-10-5.65s1.2-.56.77,1.68"/><path class="cls-8" d="M59.14,74.15a5.45,5.45,0,0,1,.63,3.29,7.24,7.24,0,0,1-.91,3,24.56,24.56,0,0,0-1.78,2.56,5.08,5.08,0,0,0-.41,2.9,3.31,3.31,0,0,0,.75,2c.15.08.17,0,.43.07l1.23,0a17.55,17.55,0,0,1,3,.43c.51.12,1,.25,1.52.42L64,89a.36.36,0,0,0,.19.11l.24,0s.14.12.16,0l.21-.21c.68,1.07-1,1.38-1.19,1.48a13.66,13.66,0,0,1-1.52.41,18.62,18.62,0,0,1-3,.4,6.39,6.39,0,0,1-1.8-.14,3.4,3.4,0,0,1-2.11-1.45A4,4,0,0,1,55,85.7a16.92,16.92,0,0,0,1.12-3c.25-1,.19-2.13.36-3.13a12.06,12.06,0,0,1,1-2.72c.4-.87.8-1.71,1.33-2.72Z"/><path class="cls-9" d="M115.49,51.82a4.52,4.52,0,0,0-.75-4,12.67,12.67,0,0,1-1.95-3.68c-2,.68-2.84,3-4.58,4.1-.7.45-1.52.69-2.2,1.17-2.08,1.46.07,4.12.18,6.12a115.57,115.57,0,0,1-.08,13.55,6.67,6.67,0,0,1-1,3.64c-1.2,1.65-3.52,1.9-5.55,2.09a76.71,76.71,0,0,0-16,3.25c-3.27,1-6.75,2.31-10,1.31L65.32,66.06a4.51,4.51,0,0,0-1-1.32C62.54,63.45,59.88,65,58,64L50.73,78.09A95.73,95.73,0,0,1,27,76.27a2.82,2.82,0,0,1-1.49-.63C24.9,75,25,74,25,73.08c0-4.11-7.91-14.14-3.7-17.27,2.34-1.75,8.54,0,11.23.23l13.82,1.14a17.11,17.11,0,0,1,5.6,1.11c1.77.79,3.22,2.17,4.94,3.07s4,1.22,5.48-.06c.58-.51,1-1.22,1.52-1.77,1.21-1.21,3.06-1.48,4.76-1.71A160.07,160.07,0,0,0,97,51.38c2.65-.86,6.1-1.53,7.94.3"/><path class="cls-6" d="M80.63,63.35,80.53,68a2.69,2.69,0,0,0,.12,1.06,2.62,2.62,0,0,0,2,1.28,29.94,29.94,0,0,0,6.11.82,2.66,2.66,0,0,0,1.84-.44,2.5,2.5,0,0,0,.66-1.7,7.49,7.49,0,0,0-1-4.79,10.5,10.5,0,0,0-4-3.1C82.69,59.17,80.74,58.22,80.63,63.35Z"/></g></g></svg>